<svg xmlns="http://www.w3.org/2000/svg" width="112" height="180" viewBox="0 0 112 180">
<path d="M34 119 30 171H13v-15l9-40M60 119l15 52h19v-15l-20-44" fill="#728790" stroke="#162f3e" stroke-width="4"/><path d="M12 160h21v14H7v-8M73 160h23l8 14H75Z" fill="#283f4e" stroke="#9aabac" stroke-width="2"/><path d="M21 59 37 49h26l17 14-5 57H24Z" fill="#80979e" stroke="#223b4c" stroke-width="4"/><path d="M28 69h43v39H28Z" fill="#263f51" stroke="#b0bcb5" stroke-width="2"/><path d="M40 81h21l-13 19" fill="none" stroke="#ebc48c" stroke-width="3"/><rect x="41" y="40" width="18" height="14" fill="#263e4e"/><path d="M25 10 68 7l12 15-4 23-46 2-9-18Z" fill="#8fa4a7" stroke="#193244" stroke-width="4"/><path d="M27 24h47v12H27Z" fill="#243e50"/><path d="M33 28h35" stroke="#edc58d" stroke-width="3"/><path d="M26 61 9 82l2 29 11 4 2-29 13-14Z" fill="#627f8c" stroke="#21394b" stroke-width="3"/><circle cx="71" cy="66" r="10" fill="#233d4d" stroke="#a1b2af" stroke-width="3"/>
</svg>
